<svg width="18" height="18" viewBox="0 0 18 18" fill="none" xmlns="http://www.w3.org/2000/svg">
<path fill-rule="evenodd" clip-rule="evenodd" d="M11 4.99993C11 4.44764 11.4477 3.99993 12 3.99993H12.01C12.5623 3.99993 13.01 4.44764 13.01 4.99993C13.01 5.55221 12.5623 5.99993 12.01 5.99993H12C11.4477 5.99993 11 5.55221 11 4.99993Z" fill="white"/>
<path fill-rule="evenodd" clip-rule="evenodd" d="M4 2C2.89543 2 2 2.89543 2 4V14C2 15.1046 2.89543 16 4 16H14C15.1046 16 16 15.1046 16 14V4C16 2.89543 15.1046 2 14 2H4ZM0 4C0 1.79086 1.79086 0 4 0H14C16.2091 0 18 1.79086 18 4V14C18 16.2091 16.2091 18 14 18H4C1.79086 18 0 16.2091 0 14V4Z" fill="white"/>
<path fill-rule="evenodd" clip-rule="evenodd" d="M5.69966 8.71456L1.70711 12.7071C1.31658 13.0976 0.683418 13.0976 0.292893 12.7071C-0.097631 12.3166 -0.0976311 11.6834 0.292893 11.2929L4.29289 7.2929L4.30662 7.27943C4.909 6.69979 5.66419 6.33013 6.5 6.33013C7.33581 6.33013 8.091 6.69979 8.69337 7.27943L8.70711 7.2929L13.7071 12.2929C14.0976 12.6834 14.0976 13.3166 13.7071 13.7071C13.3166 14.0976 12.6834 14.0976 12.2929 13.7071L7.30034 8.71456C6.9931 8.42129 6.71594 8.33013 6.5 8.33013C6.28406 8.33013 6.0069 8.42129 5.69966 8.71456Z" fill="white"/>
<path fill-rule="evenodd" clip-rule="evenodd" d="M12.6997 10.7145L11.7071 11.7071C11.3166 12.0976 10.6834 12.0976 10.2929 11.7071C9.90238 11.3166 9.90238 10.6834 10.2929 10.2929L11.2929 9.29286L11.3066 9.27939C11.909 8.69976 12.6642 8.33009 13.5 8.33009C14.3358 8.33009 15.091 8.69976 15.6934 9.27939L15.7071 9.29286L17.7071 11.2929C18.0976 11.6834 18.0976 12.3166 17.7071 12.7071C17.3166 13.0976 16.6834 13.0976 16.2929 12.7071L14.3003 10.7145C13.9931 10.4212 13.716 10.3301 13.5 10.3301C13.2841 10.3301 13.0069 10.4212 12.6997 10.7145Z" fill="white"/>
</svg>
