<svg width="20" height="20" viewBox="0 0 20 20" fill="none" xmlns="http://www.w3.org/2000/svg">
<path fill-rule="evenodd" clip-rule="evenodd" d="M10 2C5.58172 2 2 5.58172 2 10C2 14.4183 5.58172 18 10 18C14.4183 18 18 14.4183 18 10C18 5.58172 14.4183 2 10 2ZM0 10C0 4.47715 4.47715 0 10 0C15.5228 0 20 4.47715 20 10C20 15.5228 15.5228 20 10 20C4.47715 20 0 15.5228 0 10Z" fill="white"/>
<path fill-rule="evenodd" clip-rule="evenodd" d="M8.05279 5.10557C8.39157 4.93618 8.79698 4.97274 9.1 5.2L14.1 8.95C14.3518 9.13885 14.5 9.43524 14.5 9.75C14.5 10.0648 14.3518 10.3611 14.1 10.55L9.1 14.3C8.79698 14.5273 8.39157 14.5638 8.05279 14.3944C7.714 14.225 7.5 13.8788 7.5 13.5V6C7.5 5.62123 7.714 5.27496 8.05279 5.10557ZM9.5 8V11.5L11.8333 9.75L9.5 8Z" fill="white"/>
</svg>
