<svg width="14" height="12" viewBox="0 0 14 12" fill="none" xmlns="http://www.w3.org/2000/svg">
<path d="M12.5615 3.14925C13.1308 2.745 13.6097 2.24042 14 1.65942V1.65883C13.4791 1.88692 12.9249 2.03858 12.3463 2.11208C12.9412 1.75683 13.3957 1.19858 13.6092 0.526C13.0544 0.85675 12.4419 1.09008 11.7892 1.22075C11.2624 0.659583 10.5117 0.3125 9.69267 0.3125C8.10367 0.3125 6.82442 1.60225 6.82442 3.18308C6.82442 3.41058 6.84367 3.62933 6.89092 3.83758C4.50508 3.72092 2.39342 2.57758 0.97475 0.835167C0.727417 1.26508 0.581583 1.75683 0.581583 2.28592C0.581583 3.27992 1.09317 4.16075 1.85675 4.67117C1.39533 4.66242 0.94325 4.52825 0.56 4.31767V4.34917C0.56 5.74392 1.55458 6.90242 2.8595 7.16958C2.62558 7.23375 2.37125 7.26408 2.107 7.26408C1.92325 7.26408 1.73775 7.25358 1.56392 7.21508C1.9355 8.35142 2.99133 9.18733 4.2455 9.21475C3.269 9.97833 2.02883 10.4386 0.686583 10.4386C0.4515 10.4386 0.22575 10.4281 0 10.3995C1.27167 11.2191 2.77783 11.6875 4.403 11.6875C9.46808 11.6875 12.7692 7.46183 12.5615 3.14925Z" fill="white"/>
</svg>
